<svg width="53" height="53" viewBox="0 0 53 53" fill="none" xmlns="http://www.w3.org/2000/svg">
<path d="M37.4727 1.65625H15.5273C14.704 1.65718 13.9147 1.98466 13.3325 2.56685C12.7503 3.14904 12.4228 3.93838 12.4219 4.76172V48.2383C12.4228 49.0616 12.7503 49.851 13.3325 50.4332C13.9147 51.0153 14.704 51.3428 15.5273 51.3438H37.4727C38.296 51.3428 39.0853 51.0153 39.6675 50.4332C40.2497 49.851 40.5772 49.0616 40.5781 48.2383V4.76172C40.5772 3.93838 40.2497 3.14904 39.6675 2.56685C39.0853 1.98466 38.296 1.65718 37.4727 1.65625ZM23.1875 3.3125H29.8125C30.0321 3.3125 30.2428 3.39975 30.3981 3.55505C30.5534 3.71036 30.6406 3.92099 30.6406 4.14062C30.6406 4.36026 30.5534 4.57089 30.3981 4.7262C30.2428 4.8815 30.0321 4.96875 29.8125 4.96875H23.1875C22.9679 4.96875 22.7572 4.8815 22.6019 4.7262C22.4466 4.57089 22.3594 4.36026 22.3594 4.14062C22.3594 3.92099 22.4466 3.71036 22.6019 3.55505C22.7572 3.39975 22.9679 3.3125 23.1875 3.3125ZM38.9219 48.2383C38.9215 48.6225 38.7686 48.9909 38.497 49.2626C38.2253 49.5343 37.8569 49.6871 37.4727 49.6875H15.5273C15.1431 49.6871 14.7747 49.5343 14.503 49.2626C14.2314 48.9909 14.0785 48.6225 14.0781 48.2383V4.76172C14.0785 4.37749 14.2314 4.00911 14.503 3.73742C14.7747 3.46573 15.1431 3.31291 15.5273 3.3125H20.8456C20.7129 3.68719 20.6721 4.08826 20.7266 4.48199C20.7811 4.87572 20.9293 5.25062 21.1588 5.57519C21.3882 5.89975 21.6923 6.16449 22.0453 6.34717C22.3983 6.52985 22.79 6.62513 23.1875 6.625H29.8125C30.21 6.62513 30.6017 6.52985 30.9547 6.34717C31.3077 6.16449 31.6118 5.89975 31.8412 5.57519C32.0707 5.25062 32.2189 4.87572 32.2734 4.48199C32.3279 4.08826 32.2871 3.68719 32.1544 3.3125H37.4727C37.8569 3.31291 38.2253 3.46573 38.497 3.73742C38.7686 4.00911 38.9215 4.37749 38.9219 4.76172V48.2383Z" fill="black"/>
<path d="M17.3907 40.5781C17.5544 40.5782 17.7146 40.5296 17.8508 40.4386C17.9869 40.3476 18.0931 40.2183 18.1558 40.0669C18.2185 39.9156 18.2349 39.7491 18.2029 39.5885C18.1709 39.4278 18.0921 39.2802 17.9762 39.1644L17.7337 38.9219H18.2188C18.4384 38.9219 18.649 38.8346 18.8044 38.6793C18.9597 38.524 19.0469 38.3134 19.0469 38.0938C19.0469 37.8741 18.9597 37.6635 18.8044 37.5082C18.649 37.3529 18.4384 37.2656 18.2188 37.2656H17.7337L17.9762 37.0231C18.0531 36.9462 18.1141 36.8549 18.1558 36.7544C18.1974 36.654 18.2188 36.5463 18.2188 36.4375C18.2188 36.3288 18.1974 36.2211 18.1558 36.1206C18.1141 36.0201 18.0531 35.9288 17.9762 35.8519C17.8993 35.775 17.808 35.714 17.7076 35.6724C17.6071 35.6308 17.4994 35.6094 17.3907 35.6094C17.2819 35.6094 17.1742 35.6308 17.0737 35.6724C16.9733 35.714 16.882 35.775 16.8051 35.8519L15.1488 37.5082C15.0719 37.5851 15.0109 37.6764 14.9693 37.7769C14.9277 37.8773 14.9062 37.985 14.9062 38.0938C14.9062 38.2025 14.9277 38.3102 14.9693 38.4107C15.0109 38.5112 15.0719 38.6025 15.1488 38.6794L16.8051 40.3356C16.8819 40.4126 16.9732 40.4737 17.0737 40.5153C17.1741 40.5569 17.2819 40.5783 17.3907 40.5781Z" fill="black"/>
<path d="M35.3668 35.8519C35.2115 35.6966 35.0009 35.6094 34.7812 35.6094C34.5616 35.6094 34.351 35.6966 34.1957 35.8519C34.0404 36.0072 33.9531 36.2179 33.9531 36.4375C33.9531 36.6572 34.0404 36.8678 34.1957 37.0231L34.4382 37.2656H24.8438C24.6241 37.2656 24.4135 37.3529 24.2582 37.5082C24.1029 37.6635 24.0156 37.8741 24.0156 38.0938C24.0156 38.3134 24.1029 38.524 24.2582 38.6793C24.4135 38.8346 24.6241 38.9219 24.8438 38.9219H34.4382L34.1957 39.1644C34.1188 39.2413 34.0578 39.3326 34.0161 39.4331C33.9745 39.5336 33.9531 39.6413 33.9531 39.75C33.9531 39.8588 33.9745 39.9665 34.0161 40.0669C34.0578 40.1674 34.1188 40.2587 34.1957 40.3356C34.2726 40.4125 34.3639 40.4735 34.4643 40.5151C34.5648 40.5567 34.6725 40.5782 34.7812 40.5782C34.89 40.5782 34.9977 40.5567 35.0982 40.5151C35.1986 40.4735 35.2899 40.4125 35.3668 40.3356L37.0231 38.6794C37.1 38.6025 37.161 38.5112 37.2026 38.4107C37.2442 38.3102 37.2657 38.2025 37.2657 38.0938C37.2657 37.985 37.2442 37.8773 37.2026 37.7769C37.161 37.6764 37.1 37.5851 37.0231 37.5082L35.3668 35.8519Z" fill="black"/>
<path d="M36.502 7.20204C36.4687 7.0975 36.415 7.00061 36.344 6.917C36.273 6.83339 36.186 6.76472 36.0883 6.71499C35.9905 6.66526 35.8838 6.63545 35.7744 6.62729C35.665 6.61914 35.5551 6.6328 35.451 6.66749L32.9666 7.49561C32.8634 7.53001 32.768 7.58438 32.6859 7.65564C32.6037 7.7269 32.5364 7.81365 32.4878 7.91092C32.4391 8.0082 32.4101 8.1141 32.4024 8.22259C32.3947 8.33107 32.4084 8.44001 32.4428 8.54319C32.4772 8.64637 32.5316 8.74176 32.6028 8.82392C32.6741 8.90609 32.7609 8.97341 32.8581 9.02205C32.9554 9.07068 33.0613 9.09969 33.1698 9.1074C33.2783 9.11511 33.3872 9.10137 33.4904 9.06698L34.1304 8.85363L17.0412 44.813L16.9811 44.5404C16.9338 44.326 16.8032 44.139 16.6181 44.0208C16.433 43.9026 16.2085 43.8628 15.994 43.9101C15.7795 43.9574 15.5926 44.088 15.4744 44.2731C15.3562 44.4582 15.3164 44.6827 15.3637 44.8972L15.8813 47.2441C15.9053 47.353 15.9511 47.456 16.0159 47.5469C16.0808 47.6377 16.1633 47.7145 16.2585 47.7726C16.3538 47.8307 16.4598 47.869 16.5702 47.8852C16.6806 47.9013 16.7932 47.8949 16.9011 47.8665L19.2579 47.2454C19.4703 47.1894 19.6518 47.0514 19.7624 46.8616C19.873 46.6718 19.9036 46.4459 19.8477 46.2335C19.7917 46.0212 19.6536 45.8397 19.4639 45.7291C19.2741 45.6185 19.0482 45.5878 18.8358 45.6438L18.4292 45.7509L35.5601 9.70402L35.6484 9.98164C35.7164 10.1892 35.8636 10.3616 36.058 10.4611C36.2525 10.5607 36.4784 10.5793 36.6865 10.5131C36.8947 10.4469 37.0683 10.301 37.1694 10.1074C37.2706 9.91382 37.2911 9.68808 37.2266 9.47939L36.502 7.20204Z" fill="black"/>
</svg>
