<svg width="49" height="49" viewBox="0 0 49 49" fill="none" xmlns="http://www.w3.org/2000/svg">
<g clip-path="url(#clip0_87_106)">
<path d="M43.8956 26.5416C46.8356 26.5416 47.1827 28.5833 48.3975 28.0218C49.255 27.6441 48.9998 28.1546 48.9998 11.2291C48.9998 10.9584 48.8923 10.6987 48.7008 10.5073C48.5094 10.3159 48.2497 10.2083 47.979 10.2083H34.014C34.6792 8.80744 34.8707 7.22817 34.5595 5.70892C34.2483 4.18966 33.4513 2.81289 32.2888 1.78643C26.5415 -3.31774 17.7929 3.23601 21.1106 10.2083H11.229C10.9582 10.2083 10.6986 10.3159 10.5071 10.5073C10.3157 10.6987 10.2081 10.9584 10.2081 11.2291V25.1941C8.80728 24.5289 7.22801 24.3374 5.70876 24.6486C4.18951 24.9599 2.81273 25.7569 1.78627 26.9193C-3.3179 32.7177 3.25627 41.405 10.2081 38.1485V47.9791C10.2081 48.2499 10.3157 48.5095 10.5071 48.701C10.6986 48.8924 10.9582 49 11.229 49H23.0094C23.2066 48.9995 23.3995 48.9419 23.5647 48.8341C23.7299 48.7264 23.8604 48.573 23.9403 48.3927C24.0202 48.2124 24.0462 48.0127 24.015 47.818C23.9839 47.6232 23.897 47.4416 23.7648 47.2952C23.2486 46.6979 22.8779 45.989 22.682 45.2242C22.4861 44.4595 22.4702 43.6597 22.6357 42.8877C22.8012 42.1158 23.1434 41.3928 23.6356 40.7755C24.1278 40.1582 24.7564 39.6636 25.4721 39.3303C26.1878 38.9971 26.971 38.8344 27.7602 38.8551C28.5494 38.8758 29.323 39.0793 30.0203 39.4495C30.7176 39.8198 31.3194 40.3467 31.7786 40.9889C32.2377 41.6311 32.5417 42.3711 32.6665 43.1506C33.1463 46.5602 30.6248 47.1012 31.2373 48.3977C31.615 49.2552 31.1046 49 48.03 49C48.3008 49 48.5604 48.8924 48.7519 48.701C48.9433 48.5095 49.0509 48.2499 49.0509 47.9791V36.1987C49.0504 36.0015 48.9928 35.8086 48.885 35.6434C48.7772 35.4782 48.6239 35.3477 48.4436 35.2678C48.2633 35.1879 48.0636 35.162 47.8689 35.1931C47.6741 35.2242 47.4925 35.3111 47.3461 35.4433C46.7314 35.9953 45.992 36.3898 45.1913 36.593C44.3906 36.7962 43.5525 36.802 42.749 36.6099C41.9455 36.4179 41.2007 36.0337 40.5785 35.4903C39.9562 34.9469 39.4752 34.2606 39.1766 33.4904C38.878 32.7201 38.7709 31.8889 38.8644 31.0681C38.9578 30.2473 39.2491 29.4614 39.7133 28.778C40.1774 28.0946 40.8004 27.5341 41.5289 27.1446C42.2574 26.755 43.0696 26.5481 43.8956 26.5416ZM38.5363 26.9193C33.4321 32.7177 40.0063 41.405 46.9581 38.1485V46.9583H34.014C37.3317 39.986 28.624 33.4323 22.8359 38.5364C21.6734 39.5629 20.8764 40.9397 20.5651 42.4589C20.2539 43.9782 20.4454 45.5574 21.1106 46.9583H12.2498V36.1987C12.2493 36.0015 12.1917 35.8086 12.084 35.6434C11.9762 35.4782 11.8229 35.3477 11.6425 35.2678C11.4622 35.1879 11.2626 35.162 11.0678 35.1931C10.873 35.2242 10.6915 35.3111 10.545 35.4433C9.92878 35.9967 9.18712 36.3919 8.38404 36.5947C7.58097 36.7974 6.74061 36.8017 5.93552 36.6071C5.13042 36.4126 4.38477 36.025 3.76292 35.4779C3.14107 34.9307 2.66172 34.2405 2.36623 33.4667C2.07074 32.6929 1.96799 31.8589 2.06686 31.0365C2.16573 30.2142 2.46324 29.4282 2.93371 28.7466C3.40419 28.0649 4.03349 27.5079 4.76729 27.1238C5.5011 26.7396 6.31737 26.5398 7.14565 26.5416C10.0856 26.5416 10.4327 28.5833 11.6475 28.0218C12.4948 27.6441 12.2498 28.0933 12.2498 12.25C23.5606 12.25 23.5709 12.495 23.9384 11.6477C24.51 10.3614 22.0294 9.86122 22.5092 6.4006C22.6241 5.61253 22.9219 4.8623 23.3787 4.2099C23.8355 3.5575 24.4386 3.02104 25.1398 2.64343C25.841 2.26581 26.6208 2.05752 27.4169 2.03521C28.213 2.01289 29.0033 2.17718 29.7245 2.51492C30.4458 2.85267 31.078 3.3545 31.5706 3.98029C32.0632 4.60608 32.4025 5.33845 32.5614 6.11884C32.7203 6.89924 32.6944 7.70599 32.4858 8.47458C32.2771 9.24317 31.8915 9.95227 31.3598 10.5452C31.2277 10.6916 31.1408 10.8732 31.1096 11.068C31.0785 11.2627 31.1044 11.4624 31.1843 11.6427C31.2642 11.823 31.3947 11.9764 31.5599 12.0841C31.7251 12.1919 31.918 12.2495 32.1152 12.25H46.9581V25.1941C45.5573 24.5289 43.978 24.3374 42.4588 24.6486C40.9395 24.9599 39.5627 25.7569 38.5363 26.9193Z" fill="black"/>
</g>
<defs>
<clipPath id="clip0_87_106">
<rect width="49" height="49" fill="white"/>
</clipPath>
</defs>
</svg>
