<svg width="72" height="72" viewBox="0 0 72 72" fill="none" xmlns="http://www.w3.org/2000/svg">
<path d="M70.2621 35.0764C70.1057 34.9018 66.3632 30.752 60.2843 26.5531C51.0304 20.1609 42.2066 17.8226 35.4973 18.0074C25.8634 18.1621 17.2673 22.7179 11.715 26.5531C5.63629 30.752 1.89368 34.9018 1.73735 35.0764C1.26659 35.6023 1.26659 36.3979 1.73735 36.9237C1.89368 37.0983 5.63629 41.248 11.715 45.447C18.8704 50.3895 27.3739 54.0001 35.9998 54.0001C44.6264 54.0001 53.1301 50.3888 60.2844 45.447C66.3632 41.2482 70.1058 37.0983 70.2623 36.9237C70.7329 36.398 70.7329 35.6021 70.2621 35.0764ZM51.2306 36.0001C51.2306 44.2547 44.6297 50.9963 36.4292 51.2245C35.8515 51.2332 36.148 51.2332 35.5713 51.2245C27.3703 50.9967 20.769 44.255 20.769 36.0001C20.769 27.6078 27.5963 20.7693 35.9998 20.7693C44.391 20.7693 51.2306 27.5953 51.2306 36.0001ZM4.68534 35.9995C9.59519 31.0481 16.2204 26.2626 23.0831 23.4776C16.3002 30.4718 16.3095 41.5369 23.0826 48.522C16.2935 45.7666 9.6802 41.0329 4.68534 35.9995ZM48.9167 48.5224C55.6994 41.5279 55.6903 30.4631 48.9172 23.4782C55.7051 26.233 62.3184 30.9664 67.3143 36.0006C62.4041 40.9524 55.7793 45.7372 48.9167 48.5224Z" fill="black"/>
<path d="M29.0767 36.0001C29.0767 39.8175 32.1824 42.9232 35.9997 42.9232C39.8171 42.9232 42.9228 39.8175 42.9228 36.0001C42.9228 32.1827 39.8171 29.077 35.9997 29.077C32.1824 29.077 29.0767 32.1827 29.0767 36.0001ZM40.1536 36.0001C40.1536 38.2905 38.2902 40.1539 35.9997 40.1539C33.7093 40.1539 31.8459 38.2905 31.8459 36.0001C31.8459 33.7097 33.7093 31.8463 35.9997 31.8463C38.2902 31.8463 40.1536 33.7097 40.1536 36.0001Z" fill="black"/>
<path d="M35.9998 56.7693C35.2353 56.7693 34.6152 57.3893 34.6152 58.1539V62.3077C34.6152 63.0723 35.2351 63.6924 35.9998 63.6924C36.7646 63.6924 37.3845 63.0723 37.3845 62.3077V58.1539C37.3845 57.3893 36.7644 56.7693 35.9998 56.7693Z" fill="black"/>
<path d="M19.79 54.4056L17.0208 57.1749C16.4801 57.7156 16.4801 58.5923 17.0208 59.1331C17.5616 59.6738 18.4382 59.6737 18.979 59.1331L21.7482 56.3639C22.2889 55.8232 22.2889 54.9465 21.7482 54.4056C21.2076 53.8649 20.3307 53.8649 19.79 54.4056Z" fill="black"/>
<path d="M28.1479 55.9521C27.4307 55.6867 26.6341 56.0526 26.3687 56.7697L25.0088 60.4423C24.7434 61.1595 25.1095 61.9561 25.8266 62.2216C26.5409 62.486 27.3393 62.124 27.6058 61.404L28.9657 57.7315C29.2312 57.0142 28.8651 56.2177 28.1479 55.9521Z" fill="black"/>
<path d="M50.8252 54.4057C50.2844 53.8651 49.4079 53.8651 48.8669 54.4057C48.3263 54.9464 48.3263 55.8231 48.8669 56.3639L51.6362 59.1332C52.1771 59.6738 53.0535 59.6737 53.5944 59.1332C54.1351 58.5925 54.1351 57.7157 53.5944 57.1749L50.8252 54.4057Z" fill="black"/>
<path d="M44.0283 56.417C43.5681 55.8065 42.6999 55.6848 42.0892 56.145C41.4786 56.6054 41.3569 57.4736 41.8172 58.0842L44.5865 61.7567C45.0475 62.3683 45.9158 62.4885 46.5256 62.0287C47.1362 61.5683 47.2579 60.7001 46.7976 60.0895L44.0283 56.417Z" fill="black"/>
<path d="M35.9998 15.2308C36.7644 15.2308 37.3845 14.6109 37.3845 13.8462V9.69235C37.3845 8.92763 36.7644 8.30774 35.9998 8.30774C35.2353 8.30774 34.6152 8.92763 34.6152 9.69235V13.8462C34.6152 14.6109 35.2353 15.2308 35.9998 15.2308Z" fill="black"/>
<path d="M52.2095 17.5945L54.9787 14.8252C55.5194 14.2845 55.5194 13.4078 54.9787 12.867C54.4379 12.3264 53.5614 12.3264 53.0205 12.867L50.2512 15.6362C49.7105 16.1769 49.7105 17.0536 50.2512 17.5945C50.7923 18.1353 51.6687 18.1351 52.2095 17.5945Z" fill="black"/>
<path d="M44.3322 16.1346C44.8948 16.1346 45.424 15.7888 45.6308 15.2303L46.9905 11.5577C47.2561 10.8406 46.8899 10.0439 46.1728 9.77849C45.4559 9.51306 44.6591 9.87915 44.3935 10.5962L43.0338 14.2688C42.6965 15.1795 43.3772 16.1346 44.3322 16.1346Z" fill="black"/>
<path d="M21.1748 17.5945C21.7156 18.1351 22.5922 18.135 23.133 17.5945C23.6737 17.0538 23.6737 16.177 23.133 15.6362L20.3638 12.867C19.8231 12.3264 18.9464 12.3264 18.4055 12.867C17.8648 13.4077 17.8648 14.2844 18.4055 14.8252L21.1748 17.5945Z" fill="black"/>
<path d="M27.9712 15.5832C28.4315 16.1937 29.2996 16.3156 29.9104 15.8551C30.521 15.3947 30.6427 14.5266 30.1823 13.916L27.4131 10.2434C26.9527 9.63279 26.0846 9.51095 25.4739 9.97147C24.8633 10.4319 24.7416 11.3 25.202 11.9106L27.9712 15.5832Z" fill="black"/>
</svg>
