<svg width="174" height="174" viewBox="0 0 174 174" fill="none" xmlns="http://www.w3.org/2000/svg">
<path d="M130.5 174H43.5C19.575 174 0 154.425 0 130.5V43.5C0 19.575 19.575 0 43.5 0H130.5C154.425 0 174 19.575 174 43.5V130.5C174 154.425 154.425 174 130.5 174Z" fill="#02BC7D"/>
<path d="M71.775 130.5C69.6 130.5 68.15 129.775 66.7 128.325L31.175 90.625C28.275 87.725 28.275 83.375 31.175 80.475C34.075 77.575 38.425 77.575 41.325 80.475L71.05 112.375L131.95 45.675C134.125 42.775 139.2 42.05 142.1 44.225C145 46.4 145.725 51.475 143.55 54.375L142.825 55.1L76.85 127.6C76.125 129.775 73.95 130.5 71.775 130.5Z" fill="white"/>
</svg>
