<svg width="101" height="35" viewBox="0 0 101 35" fill="none" xmlns="http://www.w3.org/2000/svg">
<mask id="mask0_11_119" style="mask-type:alpha" maskUnits="userSpaceOnUse" x="0" y="0" width="101" height="35">
<path d="M7.70242 3.82596C7.62998 3.09064 7.30824 2.50583 6.73722 2.07152C6.1662 1.6372 5.44816 1.42006 4.5831 1.42006C3.97373 1.42006 3.43679 1.52541 2.9723 1.73611C2.51208 1.94681 2.14986 2.23922 1.88566 2.61333C1.62571 2.98314 1.49574 3.40455 1.49574 3.87756C1.49574 4.22587 1.57032 4.53118 1.71946 4.79348C1.86861 5.05579 2.0689 5.28155 2.32032 5.47075C2.576 5.65566 2.85725 5.81476 3.16407 5.94806C3.47515 6.08136 3.78836 6.19317 4.1037 6.28347L5.48438 6.68338C5.90199 6.79948 6.31961 6.94784 6.73722 7.12844C7.15483 7.30904 7.53623 7.53695 7.8814 7.81215C8.23083 8.08307 8.50995 8.41632 8.71875 8.81193C8.93182 9.20324 9.03836 9.6741 9.03836 10.2245C9.03836 10.9297 8.85725 11.564 8.49503 12.1273C8.13282 12.6906 7.61293 13.1378 6.93537 13.4689C6.25782 13.7958 5.44603 13.9591 4.5 13.9591C3.60938 13.9591 2.83594 13.8108 2.17969 13.5141C1.52344 13.2131 1.00782 12.7982 0.632816 12.2692C0.257812 11.7403 0.046875 11.1275 0 10.4309H1.22728C1.26989 10.9512 1.44034 11.392 1.73864 11.7532C2.03694 12.1144 2.42472 12.3896 2.90199 12.5788C3.37927 12.7638 3.91194 12.8562 4.5 12.8562C5.15199 12.8562 5.73154 12.7465 6.23864 12.5272C6.75 12.3036 7.15057 11.994 7.44034 11.5984C7.73438 11.1985 7.8814 10.7341 7.8814 10.2052C7.8814 9.75798 7.76634 9.38384 7.53623 9.08284C7.30611 8.77753 6.98438 8.52168 6.57103 8.31527C6.16194 8.10887 5.68679 7.92611 5.1456 7.76701L3.57955 7.30259C2.55256 6.99298 1.75569 6.56513 1.18892 6.01901C0.622156 5.4729 0.338778 4.77628 0.338778 3.92916C0.338778 3.21965 0.526276 2.59613 0.901276 2.05862C1.28054 1.51681 1.79191 1.09539 2.43537 0.794391C3.0831 0.489079 3.80966 0.336426 4.61506 0.336426C5.42898 0.336426 6.14915 0.48693 6.77557 0.787932C7.40199 1.08894 7.89844 1.5039 8.26492 2.03282C8.63566 2.55743 8.83381 3.15514 8.85938 3.82596H7.70242ZM11.6783 13.7334V3.82596H12.7841V5.3482H12.8864C13.0824 4.83649 13.4084 4.43442 13.8644 4.14202C14.3246 3.84531 14.8764 3.69696 15.5199 3.69696C16.1975 3.69696 16.7536 3.85821 17.1882 4.18072C17.6271 4.49893 17.9553 4.93754 18.1726 5.49655H18.2557C18.4773 4.94613 18.8374 4.50967 19.336 4.18717C19.8388 3.86036 20.4482 3.69696 21.1641 3.69696C22.076 3.69696 22.7962 3.98722 23.3246 4.56773C23.853 5.14395 24.1172 5.98676 24.1172 7.09619V13.7334H22.9794V7.09619C22.9794 6.31357 22.7813 5.72661 22.385 5.3353C21.9887 4.94398 21.4666 4.74833 20.8189 4.74833C20.0689 4.74833 19.4915 4.98053 19.0867 5.44495C18.6818 5.90936 18.4794 6.49848 18.4794 7.21229V13.7334H17.3161V6.99298C17.3161 6.32217 17.1307 5.78036 16.76 5.36755C16.3892 4.95474 15.8672 4.74833 15.1939 4.74833C14.7422 4.74833 14.3352 4.86014 13.973 5.08374C13.6151 5.30735 13.3317 5.61911 13.1229 6.01901C12.9183 6.41462 12.8161 6.87043 12.8161 7.38645V13.7334H11.6783ZM29.8716 13.9591C29.2793 13.9591 28.7381 13.8431 28.2481 13.6109C27.758 13.3744 27.3681 13.0346 27.0783 12.5917C26.7885 12.1445 26.6437 11.6027 26.6437 10.9663C26.6437 10.4761 26.7353 10.0632 26.9185 9.72781C27.1018 9.39244 27.3617 9.11724 27.6983 8.90224C28.035 8.68723 28.4334 8.51738 28.8937 8.39267C29.3539 8.26797 29.861 8.17122 30.415 8.10241C30.9647 8.03361 31.4292 7.97341 31.8084 7.92181C32.192 7.87021 32.4839 7.7885 32.6841 7.6767C32.8844 7.5649 32.9846 7.3843 32.9846 7.13489V6.90268C32.9846 6.22757 32.7843 5.6965 32.3837 5.3095C31.9874 4.91818 31.4164 4.72253 30.6706 4.72253C29.9633 4.72253 29.3858 4.87948 28.9384 5.19339C28.4952 5.5073 28.1841 5.87711 28.0052 6.30282L26.9249 5.90936C27.1465 5.36755 27.4533 4.93539 27.8454 4.61288C28.2374 4.28607 28.6763 4.05172 29.1621 3.90981C29.6479 3.76361 30.1401 3.69051 30.6387 3.69051C31.0137 3.69051 31.4036 3.73996 31.8084 3.83886C32.2175 3.93776 32.5968 4.10977 32.9462 4.35488C33.2956 4.59568 33.579 4.93324 33.7964 5.36755C34.0137 5.79755 34.1224 6.34367 34.1224 7.00589V13.7334H32.9846V12.166H32.9143C32.7779 12.4584 32.5755 12.7423 32.307 13.0174C32.0385 13.2926 31.7019 13.5184 31.2971 13.6947C30.8922 13.871 30.4171 13.9591 29.8716 13.9591ZM30.025 12.9078C30.6302 12.9078 31.1543 12.7723 31.5975 12.5014C32.0407 12.2306 32.3816 11.8714 32.6202 11.4242C32.8631 10.9727 32.9846 10.4761 32.9846 9.93427V8.50232C32.8993 8.58403 32.7566 8.65713 32.5563 8.72163C32.3603 8.78613 32.1323 8.84418 31.8724 8.89579C31.6167 8.94308 31.361 8.98393 31.1053 9.01833C30.8496 9.05274 30.6195 9.08284 30.415 9.10863C29.861 9.17743 29.388 9.28494 28.9959 9.43115C28.6039 9.57735 28.3035 9.77948 28.0947 10.0375C27.8858 10.2912 27.7814 10.6179 27.7814 11.0178C27.7814 11.6199 27.9945 12.0865 28.4206 12.4175C28.8468 12.7444 29.3816 12.9078 30.025 12.9078ZM37.149 13.7334V3.82596H38.2548V5.3482H38.3379C38.5339 4.84938 38.8748 4.44732 39.3606 4.14202C39.8507 3.83241 40.4047 3.67761 41.0226 3.67761C41.1163 3.67761 41.2207 3.67976 41.3358 3.68405C41.4508 3.68835 41.5467 3.69266 41.6234 3.69696V4.86444C41.5723 4.85583 41.4828 4.84293 41.355 4.82574C41.2271 4.80853 41.0886 4.79994 40.9395 4.79994C40.4281 4.79994 39.9721 4.90958 39.5716 5.12889C39.1753 5.3439 38.8621 5.64275 38.6319 6.02547C38.4018 6.40818 38.2868 6.84464 38.2868 7.33484V13.7334H37.149ZM48.0474 3.82596V4.82574H43.3621V3.82596H48.0474ZM44.8258 1.45231H45.97V11.1469C45.97 11.5597 46.0403 11.8843 46.1809 12.1209C46.3216 12.3531 46.5048 12.5187 46.7307 12.6175C46.9565 12.7121 47.1973 12.7594 47.453 12.7594C47.6021 12.7594 47.7299 12.7508 47.8365 12.7336C47.943 12.7121 48.0368 12.6906 48.1177 12.6691L48.3606 13.7076C48.2498 13.7506 48.1135 13.7893 47.9515 13.8237C47.7896 13.8624 47.5893 13.8817 47.3507 13.8817C46.9331 13.8817 46.5304 13.7893 46.1426 13.6044C45.7591 13.4195 45.4437 13.1443 45.1966 12.7788C44.9494 12.4133 44.8258 11.9596 44.8258 11.4178V1.45231ZM50.6314 17.4487V3.82596H51.7372V5.71586H51.8715C52.0078 5.41915 52.1953 5.11599 52.434 4.80639C52.6726 4.49248 52.9879 4.22802 53.38 4.01302C53.7763 3.79801 54.2749 3.69051 54.8757 3.69051C55.6854 3.69051 56.3928 3.90551 56.9979 4.33552C57.6073 4.76123 58.0803 5.35894 58.4169 6.12867C58.7578 6.89408 58.9283 7.78635 58.9283 8.80548C58.9283 9.82892 58.7578 10.7255 58.4169 11.4952C58.0803 12.2649 57.6073 12.8648 56.9979 13.2947C56.3928 13.7248 55.6896 13.9398 54.8885 13.9398C54.2962 13.9398 53.7997 13.8323 53.3992 13.6173C53.0029 13.4023 52.6811 13.1378 52.434 12.8239C52.1911 12.5057 52.0036 12.1961 51.8715 11.8951H51.7692V17.4487H50.6314ZM51.7564 8.78613C51.7564 9.58595 51.8736 10.2954 52.108 10.9147C52.3466 11.5296 52.6875 12.0134 53.1307 12.366C53.5781 12.7143 54.1193 12.8884 54.7543 12.8884C55.4063 12.8884 55.956 12.7079 56.4034 12.3466C56.8551 11.9811 57.1982 11.4888 57.4325 10.8695C57.6712 10.2503 57.7905 9.55585 57.7905 8.78613C57.7905 8.02501 57.6733 7.33914 57.4389 6.72853C57.2088 6.11791 56.8679 5.63415 56.4162 5.27725C55.9645 4.91603 55.4105 4.73544 54.7543 4.73544C54.1151 4.73544 53.5717 4.90958 53.1243 5.25789C52.6769 5.6019 52.336 6.07921 52.1016 6.68983C51.8715 7.29615 51.7564 7.99491 51.7564 8.78613ZM62.5622 7.54125V13.7334H61.4244V0.523481H62.5622V5.38045H62.6644C62.8945 4.86874 63.2504 4.46023 63.7319 4.15492C64.2177 3.84962 64.8313 3.69696 65.5728 3.69696C66.2376 3.69696 66.8214 3.83456 67.3242 4.10977C67.8271 4.38497 68.2191 4.79133 68.5004 5.32884C68.7816 5.86635 68.9222 6.52857 68.9222 7.31549V13.7334H67.7781V7.38645C67.7781 6.56943 67.5522 5.92656 67.1005 5.45785C66.6531 4.98484 66.048 4.74833 65.2852 4.74833C64.761 4.74833 64.2944 4.86014 63.8853 5.08374C63.4762 5.30735 63.1524 5.62985 62.9137 6.05126C62.6793 6.46838 62.5622 6.96503 62.5622 7.54125ZM75.7346 13.9398C74.8866 13.9398 74.1366 13.7226 73.4846 13.2883C72.8368 12.8541 72.3297 12.2542 71.9633 11.4888C71.5968 10.719 71.4135 9.83104 71.4135 8.82483C71.4135 7.81 71.5968 6.91774 71.9633 6.14801C72.3297 5.374 72.8368 4.77199 73.4846 4.34197C74.1366 3.90766 74.8866 3.69051 75.7346 3.69051C76.5826 3.69051 77.3304 3.90766 77.9782 4.34197C78.6259 4.77628 79.133 5.3783 79.4995 6.14801C79.8702 6.91774 80.0556 7.81 80.0556 8.82483C80.0556 9.83104 79.8724 10.719 79.5059 11.4888C79.1394 12.2542 78.6302 12.8541 77.9782 13.2883C77.3304 13.7226 76.5826 13.9398 75.7346 13.9398ZM75.7346 12.8884C76.4164 12.8884 76.9938 12.7035 77.4668 12.3337C77.9398 11.9639 78.2978 11.4715 78.5407 10.8566C78.7878 10.2417 78.9114 9.56445 78.9114 8.82483C78.9114 8.08521 78.7878 7.40579 78.5407 6.78658C78.2978 6.16737 77.9398 5.6707 77.4668 5.29659C76.9938 4.92249 76.4164 4.73544 75.7346 4.73544C75.057 4.73544 74.4796 4.92249 74.0023 5.29659C73.5293 5.6707 73.1692 6.16737 72.9221 6.78658C72.6792 7.40579 72.5577 8.08521 72.5577 8.82483C72.5577 9.56445 72.6792 10.2417 72.9221 10.8566C73.1692 11.4715 73.5293 11.9639 74.0023 12.3337C74.4753 12.7035 75.0527 12.8884 75.7346 12.8884ZM83.6911 7.54125V13.7334H82.5533V3.82596H83.6591V5.38045H83.7614C83.9915 4.87304 84.3494 4.46667 84.8352 4.16136C85.3253 3.85177 85.9304 3.69696 86.6506 3.69696C87.3111 3.69696 87.8906 3.83671 88.3892 4.11622C88.8921 4.39143 89.282 4.79779 89.559 5.3353C89.8402 5.87281 89.9808 6.53288 89.9808 7.31549V13.7334H88.8431V7.38645C88.8431 6.57373 88.6172 5.93087 88.1655 5.45785C87.7181 4.98484 87.1172 4.74833 86.3629 4.74833C85.8473 4.74833 85.3892 4.86014 84.9887 5.08374C84.5881 5.30735 84.2706 5.62985 84.0362 6.05126C83.8061 6.46838 83.6911 6.96503 83.6911 7.54125ZM96.9466 13.9398C96.0304 13.9398 95.2378 13.7248 94.5687 13.2947C93.8997 12.8604 93.3819 12.2606 93.0155 11.4952C92.6532 10.7255 92.4721 9.83962 92.4721 8.83773C92.4721 7.84011 92.6532 6.95429 93.0155 6.18026C93.3819 5.40195 93.8869 4.79348 94.5304 4.35488C95.1781 3.91197 95.926 3.69051 96.774 3.69051C97.3067 3.69051 97.8201 3.78941 98.3145 3.98722C98.8088 4.18072 99.252 4.47957 99.6439 4.88378C100.04 5.2837 100.354 5.78896 100.584 6.39957C100.814 7.00589 100.929 7.724 100.929 8.55393V9.12154H93.2584V8.10887H99.7659C99.7659 7.47244 99.6379 6.90053 99.3819 6.39312C99.1305 5.88141 98.779 5.4772 98.3273 5.1805C97.8798 4.88378 97.3621 4.73544 96.774 4.73544C96.1518 4.73544 95.6042 4.90314 95.1312 5.23855C94.6582 5.57395 94.2875 6.01686 94.019 6.56728C93.7548 7.11769 93.6206 7.7197 93.6163 8.37332V8.97963C93.6163 9.76656 93.7505 10.4546 94.019 11.0437C94.2917 11.6285 94.6774 12.0821 95.176 12.4046C95.6746 12.7271 96.2648 12.8884 96.9466 12.8884C97.4111 12.8884 97.818 12.8153 98.1675 12.6691C98.5211 12.5229 98.8173 12.3272 99.0559 12.0821C99.2988 11.8328 99.4819 11.5597 99.6059 11.2629L100.686 11.6177C100.537 12.0349 100.292 12.4198 99.9509 12.7723C99.6139 13.1249 99.1923 13.4088 98.6852 13.6237C98.1824 13.8344 97.6028 13.9398 96.9466 13.9398ZM13.8771 16.302H15.7181L22.0504 31.6448H22.2038L28.5362 16.302H30.3771V33.9152H28.8771V19.699H28.7408L22.8516 33.9152H21.4027L15.5135 19.699H15.3771V33.9152H13.8771V16.302ZM38.3587 34.2162C37.5689 34.2162 36.8473 34.0614 36.1939 33.7519C35.5405 33.4365 35.0206 32.9835 34.6342 32.393C34.2479 31.7967 34.0547 31.0743 34.0547 30.2258C34.0547 29.5721 34.1769 29.0217 34.4212 28.5745C34.6655 28.1273 35.0121 27.7604 35.461 27.4737C35.9098 27.187 36.4411 26.9606 37.0547 26.7943C37.6683 26.628 38.3445 26.499 39.0831 26.4073C39.8161 26.3155 40.4354 26.2352 40.9411 26.1664C41.4524 26.0976 41.8416 25.9887 42.1087 25.8397C42.3757 25.6905 42.5092 25.4498 42.5092 25.1172V24.8076C42.5092 23.9075 42.2422 23.1994 41.7081 22.6833C41.1797 22.1616 40.4183 21.9008 39.424 21.9008C38.4808 21.9008 37.711 22.11 37.1144 22.5285C36.5235 22.9471 36.1087 23.4401 35.87 24.0078L34.4297 23.4831C34.7252 22.7607 35.1342 22.1845 35.657 21.7546C36.1797 21.3187 36.7649 21.0063 37.4127 20.8171C38.0604 20.6222 38.7166 20.5247 39.3814 20.5247C39.8814 20.5247 40.4013 20.5907 40.9411 20.7225C41.4865 20.8544 41.9922 21.0837 42.4581 21.4106C42.924 21.7316 43.3019 22.1817 43.5916 22.7607C43.8814 23.3341 44.0263 24.0623 44.0263 24.9452V33.9152H42.5092V31.8254H42.4155C42.2337 32.2152 41.9638 32.5936 41.6058 32.9606C41.2479 33.3275 40.799 33.6285 40.2592 33.8637C39.7195 34.0987 39.086 34.2162 38.3587 34.2162ZM38.5632 32.8144C39.37 32.8144 40.0689 32.6338 40.6598 32.2726C41.2507 31.9114 41.7053 31.4327 42.0235 30.8364C42.3473 30.2344 42.5092 29.5721 42.5092 28.8497V26.9405C42.3956 27.0494 42.2053 27.1468 41.9382 27.2328C41.6769 27.3189 41.3729 27.3963 41.0263 27.4651C40.6854 27.5282 40.3445 27.5826 40.0036 27.6285C39.6627 27.6743 39.3558 27.7145 39.0831 27.7489C38.3445 27.8406 37.7138 27.984 37.1911 28.1788C36.6683 28.3738 36.2678 28.6433 35.9894 28.9873C35.711 29.3256 35.5717 29.7613 35.5717 30.2945C35.5717 31.0972 35.8558 31.7193 36.424 32.1608C36.9922 32.5965 37.7053 32.8144 38.5632 32.8144ZM48.0618 33.9152V20.7053H49.5362V22.735H49.647C49.9084 22.0699 50.3629 21.5338 51.0107 21.1267C51.6641 20.7139 52.4027 20.5075 53.2266 20.5075C53.3516 20.5075 53.4908 20.5104 53.6442 20.5161C53.7976 20.5219 53.9254 20.5276 54.0277 20.5333V22.0899C53.9595 22.0785 53.8402 22.0612 53.6698 22.0383C53.4993 22.0154 53.3146 22.0039 53.1158 22.0039C52.434 22.0039 51.826 22.1501 51.2919 22.4426C50.7635 22.7292 50.3459 23.1277 50.0391 23.6379C49.7323 24.1482 49.5788 24.7302 49.5788 25.3839V33.9152H48.0618ZM57.9972 28.9271L57.9801 26.9232H58.321L64.4574 20.7053H66.375L60.3154 26.8287L60.179 26.8544L57.9972 28.9271ZM56.6165 33.9152V16.302H58.1335V33.9152H56.6165ZM64.7727 33.9152L59.4546 27.1297L60.5455 26.0719L66.7159 33.9152H64.7727ZM73.9794 34.1904C72.7578 34.1904 71.701 33.9037 70.809 33.3305C69.9169 32.7513 69.2266 31.9515 68.7379 30.9309C68.255 29.9047 68.0135 28.7235 68.0135 27.3876C68.0135 26.0575 68.255 24.8764 68.7379 23.8444C69.2266 22.8066 69.8999 21.9953 70.7578 21.4106C71.6215 20.8199 72.6186 20.5247 73.7493 20.5247C74.4595 20.5247 75.1442 20.6566 75.8033 20.9203C76.4624 21.1783 77.0533 21.5768 77.576 22.1157C78.1044 22.6489 78.522 23.3226 78.8288 24.1368C79.1357 24.9452 79.2891 25.9027 79.2891 27.0092V27.766H69.0618V26.4159H77.7379C77.7379 25.5673 77.5675 24.8047 77.2266 24.1281C76.8913 23.4459 76.4226 22.9069 75.8203 22.5114C75.2237 22.1157 74.5334 21.9179 73.7493 21.9179C72.9198 21.9179 72.1896 22.1416 71.559 22.5888C70.9283 23.0359 70.434 23.6265 70.076 24.3603C69.7237 25.0943 69.5448 25.897 69.5391 26.7684V27.5769C69.5391 28.6261 69.7181 29.5434 70.076 30.3289C70.4396 31.1086 70.9538 31.7136 71.6186 32.1436C72.2834 32.5736 73.0703 32.7886 73.9794 32.7886C74.5987 32.7886 75.1413 32.6911 75.6073 32.4962C76.0788 32.3013 76.4737 32.0403 76.7919 31.7136C77.1158 31.381 77.3601 31.0169 77.5249 30.6213L78.9652 31.0943C78.7663 31.6505 78.4396 32.1636 77.9851 32.6338C77.5362 33.1039 76.9737 33.4823 76.2976 33.769C75.6271 34.0499 74.8544 34.1904 73.9794 34.1904ZM87.7884 20.7053V22.0383H81.5412V20.7053H87.7884ZM83.4929 17.5404H85.0185V30.4666C85.0185 31.0169 85.1122 31.4498 85.2997 31.7652C85.4872 32.0747 85.7315 32.2955 86.0327 32.4274C86.3338 32.5536 86.6548 32.6166 86.9958 32.6166C87.1946 32.6166 87.3651 32.6051 87.5071 32.5822C87.6492 32.5536 87.7742 32.5249 87.8821 32.4962L88.206 33.8808C88.0583 33.9381 87.8764 33.9898 87.6605 34.0356C87.4446 34.0873 87.1776 34.113 86.8594 34.113C86.3026 34.113 85.7656 33.9898 85.2486 33.7432C84.7372 33.4966 84.3168 33.1297 83.9872 32.6424C83.6577 32.1551 83.4929 31.5501 83.4929 30.8277V17.5404Z" fill="url(#paint0_radial_11_119)"/>
</mask>
<g mask="url(#mask0_11_119)">
<rect x="-24" y="-7.96216" width="161" height="55.5" fill="#FFEF5B"/>
</g>
<defs>
<radialGradient id="paint0_radial_11_119" cx="0" cy="0" r="1" gradientUnits="userSpaceOnUse" gradientTransform="translate(50.6643 -3.42115) rotate(90.3824) scale(40.3645 104.008)">
<stop stop-color="#FFEF5B"/>
<stop offset="1" stop-color="#CBAA00"/>
</radialGradient>
</defs>
</svg>
